<svg width="991" height="800" viewBox="0 0 991 800" fill="none" xmlns="http://www.w3.org/2000/svg">
<g id="judgeArt 1">
<g id="body">
<path id="Vector" d="M459.99 322.11C457.18 328.82 451.14 333.56 445.17 337.73C439.2 341.9 432.83 345.87 425.64 346.21C438.31 362.5 455.64 374.48 472.58 386.21C480.47 391.66 488.47 397.1 497.47 400.18C505.73 403 514.52 403.7 523.16 404.88C534.16 406.39 545.11 408.72 556.16 408.26C575.85 407.44 594.68 397.51 607.74 382.75C620.8 367.99 628.28 348.75 630.3 329.12C623.3 329.01 616.84 325.12 611.19 320.88C604.28 315.71 597.8 309.73 593.34 302.34C588.51 294.34 586.34 285.06 584.14 275.97C560.83 275.27 537.52 274.58 514.2 275.03C505.71 275.19 497.2 275.52 488.92 277.63C481.03 279.63 464.55 284.79 459.74 291.9C456.97 296 459.74 300.22 460.74 304.64C462.02 310.45 462.34 316.52 459.99 322.11Z" fill="#BE6F72"/>
<path id="Vector_2" opacity="0.1" d="M459.99 322.11C457.18 328.82 451.14 333.56 445.17 337.73C439.2 341.9 432.83 345.87 425.64 346.21C438.31 362.5 455.64 374.48 472.58 386.21C480.47 391.66 488.47 397.1 497.47 400.18C505.73 403 514.52 403.7 523.16 404.88C534.16 406.39 545.11 408.72 556.16 408.26C575.85 407.44 594.68 397.51 607.74 382.75C620.8 367.99 628.28 348.75 630.3 329.12C623.3 329.01 616.84 325.12 611.19 320.88C604.28 315.71 597.8 309.73 593.34 302.34C588.51 294.34 586.34 285.06 584.14 275.97C560.83 275.27 537.52 274.58 514.2 275.03C505.71 275.19 497.2 275.52 488.92 277.63C481.03 279.63 464.55 284.79 459.74 291.9C456.97 296 459.74 300.22 460.74 304.64C462.02 310.45 462.34 316.52 459.99 322.11Z" fill="black"/>
<path id="Vector_3" d="M486.36 349.74C493.03 358.03 499.9 366.49 509.04 371.93C511.83 373.58 514.95 374.93 518.19 374.82C522.99 374.62 526.96 371.2 530.48 367.92C548.055 351.561 564.746 334.277 580.48 316.14C585.41 310.45 590.48 304.52 597.23 301.21C603.329 356.248 604.921 411.693 601.99 466.99C602.022 468.034 601.78 469.068 601.29 469.99C600.24 471.58 598.04 471.81 596.13 471.88C539.68 474 480.97 475.7 429.27 452.88C432.86 442.23 432.27 430.71 432.62 419.47C433.19 401.04 436.39 382.79 440.81 364.92C442.98 356.15 445.45 347.46 448.07 338.82C450.25 331.58 451.91 318.82 456.78 313.35C467.98 323.35 476.95 338.04 486.36 349.74Z" fill="#E3E8F4"/>
<path id="Vector_4" d="M511.99 376.54H518.99L536.99 406.54L517.99 453.54L494.99 407.54L511.99 376.54Z" fill="#3F3D56"/>
<path id="Vector_5" d="M511.36 423.94C504.851 414.441 500.365 403.706 498.18 392.4C497.48 388.78 497.01 385.09 495.73 381.63C493.83 376.5 490.25 372.2 487.02 367.77C475.043 351.34 467.329 332.194 464.57 312.05C463.33 302.91 462.5 292.44 455.12 286.91C450.48 283.44 444.3 282.91 438.5 283.01C416.068 283.571 394.584 292.169 377.96 307.24C375.196 309.981 372.274 312.559 369.21 314.96C366.07 317.107 362.719 318.93 359.21 320.4C350.35 324.4 341.09 327.72 331.44 328.73C328.96 328.833 326.502 329.24 324.12 329.94C321.24 330.94 318.87 333.05 316.44 334.94C308.678 340.919 299.76 345.223 290.25 347.58C276.829 378.744 266.448 411.131 259.25 444.29C257.44 452.54 255.82 460.85 253.35 468.93C249.94 480.13 244.92 490.81 241.57 502.03C228.25 546.68 242.24 595.32 233.27 641.03L714.33 641.69C706.77 629.96 709.49 615.06 708.84 601.12C708.23 588.28 704.97 575.73 702.71 563.07C698.93 541.9 697.96 520.32 697.57 498.82C697.41 489.74 697.4 480.36 700.91 471.99C707.5 456.28 724.6 447.99 740.79 442.66C748.53 440.12 756.67 437.8 762.79 432.37C769.06 426.76 772.32 418.52 774.32 410.37C763.41 388.87 749.23 368.37 731.32 352.24C724.59 346.24 717.4 340.61 711.72 333.59C708.26 329.3 705.39 324.52 701.57 320.59C692.01 310.66 677.57 306.92 663.81 306.37C659.56 306.2 655.25 306.28 651.13 305.22C639.31 302.22 631.78 290.67 621.13 284.69C613.72 280.555 605.069 279.227 596.76 280.95C590.76 282.2 584.62 285.76 583.27 291.68C582.52 295.01 583.44 298.45 583.79 301.84C584.87 312.27 580.54 322.49 575.3 331.57C556.47 363.98 525.68 389.27 511.36 423.94Z" fill="#C4A300"/>
</g>
<g id="table">
<path id="Vector_6" d="M957.47 675.82V629.04H72.13C73.79 631.48 75.4733 633.893 77.18 636.28C78.4698 639.335 80.235 642.167 82.41 644.67C83.5685 645.994 84.84 647.216 86.21 648.32C105.41 672.77 127.27 693.53 151.31 709.24C164.968 718.195 179.632 725.512 195 731.04H929.64L957.47 675.82Z" fill="#3F3D56"/>
</g>
<g id="rightArm">
<path id="Vector_7" d="M760.84 393.66C769.13 401.55 775.11 411.51 780.6 421.55C799.2 455.543 813.452 491.741 823.02 529.29C823.96 532.98 824.89 536.77 827.09 539.88C830.29 544.39 835.72 546.88 839.21 551.14C843.4 556.32 844.21 563.62 842.83 570.14C841.45 576.66 838.16 582.61 834.83 588.38C825.72 604.16 814.97 620.45 798.24 627.66C791.24 630.66 783.59 631.9 776.02 632.89C747.587 636.631 718.855 637.559 690.24 635.66C695.24 629.86 695.72 621.3 693.95 613.85C692.18 606.4 688.49 599.57 685.95 592.36C683.95 586.73 682.54 580.73 679.03 575.89C676.443 572.568 673.254 569.763 669.63 567.62C661.395 562.392 652.132 558.996 642.47 557.66C649.64 552.06 658.93 550.2 667.67 547.66C676.41 545.12 685.55 541.22 690.13 533.36C692.88 528.65 693.64 523.06 694.01 517.62C695.126 501.251 693.214 484.816 688.37 469.14C685.15 458.71 680.59 447.81 683.37 437.27C684.79 431.95 687.98 427.27 691.11 422.79C697.21 413.99 703.53 404.98 712.43 399.04C720.11 393.91 729.24 391.5 738.38 390.86C745.23 390.41 755.64 388.75 760.84 393.66Z" fill="#C4A300"/>
<path id="rightHand" d="M534.38 575.54C520.81 574.46 506.7 571.08 493.92 575.76C489.563 577.499 485.43 579.756 481.61 582.48C467.806 591.747 455.093 602.542 443.71 614.66C440.42 618.15 437.2 621.83 435.18 626.19C432.33 632.34 432.08 639.35 430.18 645.86C429.09 649.59 427.43 653.37 428.09 657.2C428.75 661.03 433.17 664.46 436.48 662.42C436.314 663.488 436.387 664.579 436.692 665.616C436.997 666.653 437.527 667.609 438.244 668.417C438.962 669.225 439.848 669.865 440.842 670.291C441.835 670.717 442.91 670.918 443.99 670.88C449.051 670.706 453.937 668.985 457.99 665.95V665.95C458.119 667.163 458.711 668.28 459.642 669.067C460.573 669.855 461.772 670.254 462.99 670.18C471.66 669.61 479.92 665.18 487.34 660.34C496.05 654.7 504.7 648.28 514.9 646.34C508.625 649.201 503.097 653.476 498.75 658.83C497.08 660.88 495.52 663.28 497.36 666.45C498.46 668.23 500.153 669.565 502.14 670.22C513.56 674.22 525.97 667.6 533.59 658.42C536.66 654.71 539.37 650.42 543.59 648.17C550.38 644.52 558.75 647.08 566.39 646.02C574.87 644.86 582 639.33 589.79 635.76C600.16 631.02 611.72 629.76 622.79 626.94C624.119 626.746 625.344 626.112 626.27 625.14C626.962 623.986 627.26 622.638 627.12 621.3C627.071 607.604 626.038 593.928 624.03 580.38C623.863 578.198 623.196 576.083 622.08 574.2C619.9 571.1 615.76 570.2 612.03 569.58C606.03 568.58 599.3 566.34 593.26 566.36C587.46 566.36 581.87 569.64 576.34 571.25C562.727 575.202 548.511 576.656 534.38 575.54Z" fill="#BE6F72"/>
<path id="Vector_8" d="M597.64 557.51C582.65 559.084 568.549 565.389 557.38 575.51C569.85 572.36 583.27 569.25 595.29 573.81C601.145 576.032 606.208 579.943 609.837 585.046C613.467 590.149 615.499 596.215 615.677 602.474C615.855 608.734 614.17 614.906 610.836 620.207C607.502 625.507 602.669 629.699 596.95 632.25C599.38 634.98 602.95 636.32 606.5 637.35C632.15 644.83 659.61 640.35 685.84 635.25C690.64 634.32 695.84 633.09 698.77 629.14C701.38 625.57 701.3 620.76 701.07 616.33C700.4 603.54 699.29 590.33 693.49 578.94C685.63 563.48 671.98 557.72 655.54 559.51C636.2 561.57 617 555.55 597.64 557.51Z" fill="#E3E8F4"/>
</g>
<g id="hammerCircle">
<path id="Vector_9" opacity="0.1" d="M386.13 665.78C386.13 674.89 365.36 684.93 339.73 684.93C314.1 684.93 293.32 674.93 293.32 665.78C293.32 656.63 314.1 651.96 339.73 651.96C365.36 651.96 386.13 656.66 386.13 665.78Z" fill="white"/>
<path id="Vector_10" d="M400.99 700.16C400.91 710.6 372.52 722.16 339.67 722.16C306.82 722.16 279.4 710.63 278.96 700.16C277.43 663.85 306.81 684.29 339.67 684.29C372.53 684.29 401.29 658.36 400.99 700.16Z" fill="#3F3D56"/>
<path id="Vector_11" opacity="0.2" d="M400.99 700.16C400.91 710.6 372.52 722.16 339.67 722.16C306.82 722.16 279.4 710.63 278.96 700.16C277.43 663.85 306.81 684.29 339.67 684.29C372.53 684.29 401.29 658.36 400.99 700.16Z" fill="black"/>
<path id="Vector_12" d="M399.16 684.29C399.16 694.74 372.52 706.29 339.67 706.29C306.82 706.29 280.18 694.77 280.18 684.29C280.18 673.81 306.81 668.43 339.67 668.43C372.53 668.43 399.16 673.85 399.16 684.29Z" fill="#3F3D56"/>
<path id="Vector_13" opacity="0.1" d="M399.16 684.29C399.16 694.74 372.52 706.29 339.67 706.29C306.82 706.29 280.18 694.77 280.18 684.29C280.18 673.81 306.81 668.43 339.67 668.43C372.53 668.43 399.16 673.85 399.16 684.29Z" fill="white"/>
<path id="Vector_14" d="M387.56 680.17C387.5 688.32 365.36 697.3 339.73 697.3C314.1 697.3 292.73 688.3 292.37 680.17C291.18 651.85 314.1 667.79 339.73 667.79C365.36 667.79 387.8 647.57 387.56 680.17Z" fill="#3F3D56"/>
<path id="Vector_15" opacity="0.2" d="M387.56 680.17C387.5 688.32 365.36 697.3 339.73 697.3C314.1 697.3 292.73 688.3 292.37 680.17C291.18 651.85 314.1 667.79 339.73 667.79C365.36 667.79 387.8 647.57 387.56 680.17Z" fill="black"/>
<path id="Vector_16" d="M386.13 665.78C386.13 674.89 365.36 684.93 339.73 684.93C314.1 684.93 293.32 674.93 293.32 665.78C293.32 656.63 314.1 651.96 339.73 651.96C365.36 651.96 386.13 656.66 386.13 665.78Z" fill="#3F3D56"/>
</g>
<g id="hammer">
<path id="Vector_17" opacity="0.1" d="M281.169 639.147C283.914 634.573 275.092 624.234 261.463 616.054C247.834 607.875 234.56 604.953 231.815 609.527C229.069 614.102 237.892 624.441 251.521 632.62C265.15 640.799 278.424 643.722 281.169 639.147Z" fill="white"/>
<path id="Vector_18" d="M228.52 726.18C228.52 726.18 237.3 716.5 238.81 705.62C240.32 694.74 195.91 678.03 195.91 678.03C195.91 678.03 180.51 687.03 179.99 695.46C179.99 695.46 209.47 727.14 228.52 726.18Z" fill="#3F3D56"/>
<path id="Vector_19" opacity="0.2" d="M228.52 726.18C228.52 726.18 237.3 716.5 238.81 705.62C240.32 694.74 195.91 678.03 195.91 678.03C195.91 678.03 180.51 687.03 179.99 695.46C179.99 695.46 209.47 727.14 228.52 726.18Z" fill="black"/>
<path id="Vector_20" d="M228.119 726.62C230.864 722.046 222.041 711.707 208.413 703.528C194.784 695.348 181.51 692.426 178.765 697.001C176.019 701.575 184.842 711.914 198.471 720.093C212.099 728.273 225.373 731.195 228.119 726.62Z" fill="#3F3D56"/>
<path id="Vector_21" opacity="0.1" d="M228.119 726.62C230.864 722.046 222.041 711.707 208.413 703.528C194.784 695.348 181.51 692.426 178.765 697.001C176.019 701.575 184.842 711.914 198.471 720.093C212.099 728.273 225.373 731.195 228.119 726.62Z" fill="white"/>
<path id="Vector_22" d="M239.43 702.29L264.69 660.18L239 638.36L218.97 634.61L212.72 645.88L195.14 678.5L239.43 702.29Z" fill="#3F3D56"/>
<path id="Vector_23" opacity="0.1" d="M239.43 702.29L264.69 660.18L239 638.36L218.97 634.61L212.72 645.88L195.14 678.5L239.43 702.29Z" fill="white"/>
<path id="Vector_24" d="M265.03 664.33C265.03 664.33 282.09 646.2 277.71 636.4C273.33 626.6 250.2 606.96 235.47 609.95C220.74 612.94 218.38 634.66 218.38 634.66L265.03 664.33Z" fill="#3F3D56"/>
<path id="Vector_25" opacity="0.2" d="M265.03 664.33C265.03 664.33 282.09 646.2 277.71 636.4C273.33 626.6 250.2 606.96 235.47 609.95C220.74 612.94 218.38 634.66 218.38 634.66L265.03 664.33Z" fill="black"/>
<path id="Vector_26" d="M70.98 584.66L201.65 664.14C201.65 664.14 214.07 662.53 212.72 645.9L83.3 565.56C80.6655 563.923 77.5445 563.252 74.47 563.66C70.93 564.14 66.74 565.43 65.38 568.8C65.0324 569.657 64.7907 570.554 64.66 571.47C64.2946 574.047 64.6997 576.674 65.8243 579.021C66.9489 581.368 68.7428 583.33 70.98 584.66Z" fill="#3F3D56"/>
<path id="Vector_27" opacity="0.2" d="M70.98 584.66L201.65 664.14C201.65 664.14 214.07 662.53 212.72 645.9L83.3 565.56C80.6655 563.923 77.5445 563.252 74.47 563.66C70.93 564.14 66.74 565.43 65.38 568.8C65.0324 569.657 64.7907 570.554 64.66 571.47C64.2946 574.047 64.6997 576.674 65.8243 579.021C66.9489 581.368 68.7428 583.33 70.98 584.66Z" fill="black"/>
<path id="Vector_28" d="M239.41 708.22C240.092 708.181 240.745 707.925 241.272 707.49C241.799 707.055 242.173 706.463 242.34 705.8C242.98 703.55 241.81 701.39 240.58 699.59C238.383 696.379 235.642 693.577 232.48 691.31C227.16 687.46 222 683.12 215.98 680.31C212.495 678.759 208.845 677.608 205.1 676.88C202.293 676.235 199.42 675.919 196.54 675.94C196.029 675.954 195.534 676.123 195.121 676.425C194.709 676.727 194.398 677.147 194.229 677.63C194.061 678.113 194.044 678.636 194.18 679.129C194.316 679.621 194.598 680.061 194.99 680.39V680.39C196.321 681.273 197.807 681.897 199.37 682.23C207.16 684.52 214.37 688.49 221.12 693C224.756 695.339 228.161 698.017 231.29 701C233.37 703.06 236.03 708.3 239.41 708.22Z" fill="#3F3D56"/>
<path id="Vector_29" opacity="0.2" d="M239.41 708.22C240.092 708.181 240.745 707.925 241.272 707.49C241.799 707.055 242.173 706.463 242.34 705.8C242.98 703.55 241.81 701.39 240.58 699.59C238.383 696.379 235.642 693.577 232.48 691.31C227.16 687.46 222 683.12 215.98 680.31C212.495 678.759 208.845 677.608 205.1 676.88C202.293 676.235 199.42 675.919 196.54 675.94C196.029 675.954 195.534 676.123 195.121 676.425C194.709 676.727 194.398 677.147 194.229 677.63C194.061 678.113 194.044 678.636 194.18 679.129C194.316 679.621 194.598 680.061 194.99 680.39V680.39C196.321 681.273 197.807 681.897 199.37 682.23C207.16 684.52 214.37 688.49 221.12 693C224.756 695.339 228.161 698.017 231.29 701C233.37 703.06 236.03 708.3 239.41 708.22Z" fill="black"/>
<path id="Vector_30" d="M260.27 667.55C260.27 667.55 273.09 667.86 262.48 654.97C251.87 642.08 232.89 629.29 219.38 632.18C219.38 632.18 213.78 636.82 218.62 637.62C223.21 638.38 244.62 642.62 254.46 654.55C255.537 655.845 256.74 657.031 258.05 658.09C260.36 659.97 263.47 663.53 260.27 667.55Z" fill="#3F3D56"/>
<path id="Vector_31" opacity="0.2" d="M260.27 667.55C260.27 667.55 273.09 667.86 262.48 654.97C251.87 642.08 232.89 629.29 219.38 632.18C219.38 632.18 213.78 636.82 218.62 637.62C223.21 638.38 244.62 642.62 254.46 654.55C255.537 655.845 256.74 657.031 258.05 658.09C260.36 659.97 263.47 663.53 260.27 667.55Z" fill="black"/>
<path id="Vector_32" d="M281.169 639.147C283.914 634.573 275.092 624.234 261.463 616.054C247.834 607.875 234.56 604.953 231.815 609.527C229.069 614.102 237.892 624.441 251.521 632.62C265.15 640.799 278.424 643.722 281.169 639.147Z" fill="#3F3D56"/>
</g>
<g id="leftArm">
<path id="Vector_33" d="M327.47 340.22C317.68 344.45 306.22 341.46 295.87 344.02C288.23 345.91 281.66 350.7 275.46 355.55C263.1 365.21 250.92 376.01 244.31 390.24C242.15 394.9 240.61 399.85 238.02 404.24C233.83 411.4 227.14 416.73 220.17 421.24C202.36 432.72 181.68 439.9 165.83 453.96C159.05 459.96 153.34 467.08 148.03 474.41C141.79 483.01 135.82 492.61 135.7 503.23C135.7 507.39 136.52 511.61 135.7 515.7C133.94 524.85 124.7 530.53 120.53 538.87C116.53 546.82 117.48 556.64 113.03 564.32C110.11 569.32 104.82 574.32 106.49 579.84C118.75 570.63 133.49 566.84 148.49 569.84C156 571.33 163.01 574.68 169.73 578.35C177.52 582.61 185.2 587.45 190.83 594.35C196.46 601.25 199.83 610.43 197.83 619.08C205.94 615.08 210.74 606.54 214.07 598.14C217.4 589.74 219.94 580.77 225.47 573.66C228.32 569.99 231.86 566.94 235.23 563.75C253.94 546.02 267.43 523.62 280.67 501.51C294.323 478.723 307.97 455.923 321.61 433.11C325.39 426.78 329.19 420.41 331.92 413.57C341.09 390.57 335.15 363.71 327.47 340.22Z" fill="#C4A300"/>
<path id="Vector_34" d="M196.54 635.84C196.367 638.17 195.625 640.421 194.381 642.398C193.136 644.375 191.426 646.017 189.4 647.18C182.69 650.76 173.27 647.57 170.11 640.65C168.47 637.05 168.44 633.01 168.11 629.04C168.003 627.745 167.829 626.457 167.59 625.18C166.59 620.03 162.33 614.56 157.18 615.58C152.93 616.41 150.69 621.18 150.18 625.48C150.048 626.662 149.982 627.851 149.98 629.04C149.98 630.28 150.03 631.52 150.1 632.76C150.24 635.3 150.46 637.85 150.45 640.39C150.45 645.39 149.37 650.7 145.76 654.13C141.38 658.3 134.66 658.49 128.6 658.42C113.81 658.27 97.35 657.42 86.22 648.32C84.85 647.216 83.5785 645.994 82.42 644.67C80.245 642.167 78.4798 639.335 77.19 636.28C76.1986 633.947 75.4383 631.522 74.92 629.04C73.26 621.29 73.63 612.84 74.99 604.98C75.87 599.84 77.57 594.21 81.33 590.93C82.2254 590.148 83.2376 589.51 84.33 589.04C86.13 588.28 88.17 588.04 89.74 586.85C91.31 585.66 92.33 583.5 93.99 582.2C97.32 579.59 102.38 580.71 106.28 579.83H106.45L106.66 579.77C110.87 578.77 114.76 576.47 118.73 574.77C120.44 574.04 122.15 573.34 123.87 572.72C128.152 571.009 132.776 570.325 137.37 570.72C152.37 572.43 170.37 581.53 180.64 592.45C183.17 594.962 185.14 597.982 186.42 601.31C187.259 604.099 187.723 606.988 187.8 609.9C188.07 614.01 188.29 618.11 190.33 621.62C191.57 623.74 193.39 625.47 194.68 627.62C194.977 628.103 195.238 628.608 195.46 629.13C196.377 631.241 196.748 633.548 196.54 635.84V635.84Z" fill="#BE6F72"/>
<path id="Vector_35" d="M163.55 586.48C169.66 589.64 175.67 593.21 180.47 598.13C185.27 603.05 188.81 609.5 189.09 616.38C193.285 611.304 196.885 605.765 199.82 599.87C202.14 595.22 204.05 589.72 201.99 584.94C201.006 582.916 199.621 581.113 197.92 579.64C188.92 571.12 176.82 566.41 164.58 564.48C151.35 562.39 124.92 557.83 122.89 577.09C137.71 576.39 150.31 579.66 163.55 586.48Z" fill="#E3E8F4"/>
</g>
<g id="plant">
<path id="Vector_36" d="M898.7 645.69C930.186 645.69 955.71 640.783 955.71 634.73C955.71 628.677 930.186 623.77 898.7 623.77C867.214 623.77 841.69 628.677 841.69 634.73C841.69 640.783 867.214 645.69 898.7 645.69Z" fill="#C4A300"/>
<g id="plantHead">
<path id="Vector_37" opacity="0.1" d="M865.81 513.32C865.798 520.452 868.194 527.379 872.61 532.98C868.922 537.671 866.629 543.305 865.992 549.238C865.355 555.171 866.4 561.163 869.008 566.53C871.615 571.897 875.68 576.422 880.738 579.588C885.796 582.754 891.643 584.433 897.61 584.433C903.577 584.433 909.424 582.754 914.482 579.588C919.54 576.422 923.605 571.897 926.212 566.53C928.82 561.163 929.865 555.171 929.228 549.238C928.591 543.305 926.298 537.671 922.61 532.98C926.86 527.57 865.81 509.75 865.81 513.32Z" fill="black"/>
<path id="Vector_38" d="M897.74 638.77C901.407 638.77 904.38 634.879 904.38 630.08C904.38 625.281 901.407 621.39 897.74 621.39C894.073 621.39 891.1 625.281 891.1 630.08C891.1 634.879 894.073 638.77 897.74 638.77Z" fill="#3F3D56"/>
<path id="Vector_39" d="M897.74 628.14C901.407 628.14 904.38 624.249 904.38 619.45C904.38 614.651 901.407 610.76 897.74 610.76C894.073 610.76 891.1 614.651 891.1 619.45C891.1 624.249 894.073 628.14 897.74 628.14Z" fill="#3F3D56"/>
<path id="Vector_40" d="M897.74 617.52C901.407 617.52 904.38 613.629 904.38 608.83C904.38 604.031 901.407 600.14 897.74 600.14C894.073 600.14 891.1 604.031 891.1 608.83C891.1 613.629 894.073 617.52 897.74 617.52Z" fill="#3F3D56"/>
<path id="Vector_41" d="M897.74 606.9C901.407 606.9 904.38 603.009 904.38 598.21C904.38 593.411 901.407 589.52 897.74 589.52C894.073 589.52 891.1 593.411 891.1 598.21C891.1 603.009 894.073 606.9 897.74 606.9Z" fill="#3F3D56"/>
<path id="Vector_42" d="M897.74 596.28C901.407 596.28 904.38 592.389 904.38 587.59C904.38 582.791 901.407 578.9 897.74 578.9C894.073 578.9 891.1 582.791 891.1 587.59C891.1 592.389 894.073 596.28 897.74 596.28Z" fill="#3F3D56"/>
<path id="Vector_43" d="M897.74 585.66C901.407 585.66 904.38 581.769 904.38 576.97C904.38 572.171 901.407 568.28 897.74 568.28C894.073 568.28 891.1 572.171 891.1 576.97C891.1 581.769 894.073 585.66 897.74 585.66Z" fill="#3F3D56"/>
<path id="Vector_44" d="M897.74 575.04C901.407 575.04 904.38 571.149 904.38 566.35C904.38 561.551 901.407 557.66 897.74 557.66C894.073 557.66 891.1 561.551 891.1 566.35C891.1 571.149 894.073 575.04 897.74 575.04Z" fill="#3F3D56"/>
<path id="Vector_45" d="M922.6 493.66C923.505 492.508 924.33 491.295 925.07 490.03L907.63 487.16L926.49 487.3C928.299 483.363 929.286 479.099 929.391 474.768C929.496 470.437 928.716 466.13 927.1 462.11L901.79 475.24L925.13 458.08C922.945 454.298 920.005 451.007 916.492 448.412C912.979 445.816 908.969 443.972 904.713 442.995C900.456 442.017 896.043 441.927 891.75 442.73C887.457 443.532 883.375 445.211 879.759 447.661C876.143 450.11 873.071 453.278 870.733 456.968C868.396 460.657 866.843 464.788 866.172 469.104C865.501 473.42 865.727 477.828 866.834 482.052C867.942 486.277 869.908 490.228 872.61 493.66C871.202 495.46 869.989 497.404 868.99 499.46L891.63 511.23L867.47 503.12C865.774 508.131 865.354 513.485 866.248 518.698C867.142 523.912 869.322 528.821 872.59 532.98C868.902 537.671 866.609 543.305 865.972 549.238C865.335 555.171 866.38 561.163 868.987 566.53C871.595 571.897 875.66 576.422 880.718 579.588C885.776 582.754 891.623 584.433 897.59 584.433C903.557 584.433 909.404 582.754 914.462 579.588C919.52 576.422 923.585 571.897 926.193 566.53C928.8 561.163 929.845 555.171 929.208 549.238C928.571 543.305 926.278 537.671 922.59 532.98C926.995 527.374 929.39 520.45 929.39 513.32C929.39 506.19 926.995 499.266 922.59 493.66H922.6Z" fill="#C4A300"/>
</g>
</g>
<g id="head">
<path id="Vector_46" d="M388.09 250.2C385.6 245.12 384.67 239.39 383.77 233.77C378.49 200.59 373.55 164.77 387.89 134.7C390.15 129.97 392.89 125.37 396.89 122.14C401.17 118.69 406.48 117.05 411.44 114.81C425.84 108.33 437.44 96.7 450.1 87.05C462.76 77.4 478.04 69.35 493.55 71.81C501.55 73.08 508.95 77.08 516.71 79.59C538.63 86.69 563.93 82.06 583.62 94.37C590.73 98.82 596.53 105.17 602.23 111.45L627.66 139.45C634.55 147.03 641.57 154.8 645.74 164.3C649.91 173.8 650.79 185.51 645.48 194.37C642.81 198.84 638.59 202.71 638.13 207.96C637.63 213.66 641.77 218.56 643.28 224.06C647.28 238.59 632.61 251.06 619.23 256.8C578.8 274.1 534.32 272.11 491.52 271.4C459.65 270.85 406.47 287.58 388.09 250.2Z" fill="#3F3D56"/>
<path id="Vector_47" d="M616.47 224.04C616.466 246.454 609.005 268.231 595.264 285.939C581.522 303.647 562.281 316.281 540.57 321.851C518.858 327.422 495.911 325.611 475.342 316.706C454.772 307.801 437.75 292.306 426.955 272.662C416.16 253.018 412.206 230.342 415.716 208.204C419.226 186.066 430 165.725 446.342 150.384C462.684 135.042 483.664 125.573 505.979 123.467C528.295 121.361 550.677 126.737 569.6 138.75C583.964 147.868 595.791 160.467 603.985 175.378C612.179 190.288 616.473 207.027 616.47 224.04V224.04Z" fill="#BE6F72"/>
<path id="Vector_48" d="M465.47 179.94C472.47 182.64 479.3 186.52 486.81 187.03C496.34 187.67 505.34 182.81 514.81 181.47C532.16 179.02 548.63 188.47 564.93 194.89C581.23 201.31 602.23 203.97 614.18 191.16C624.33 180.27 622.93 162.16 614.77 149.76C606.61 137.36 593.28 129.34 580.1 122.43C565.56 114.81 550.4 107.88 534.21 105.19C499.85 99.5 464.94 113.71 436.43 133.72C426.97 140.36 417.62 148.11 413.1 158.72C410.54 164.72 409.74 172.4 411.97 178.65C415.63 188.93 418.03 187.71 425.62 185.03C440.12 179.93 448.69 173.52 465.47 179.94Z" fill="#3F3D56"/>
</g>
</g>
</svg>
